{
    "asset" : {
        "generator" : "Khronos Blender glTF 2.0 I/O",
        "version" : "2.0"
    },
    "scene" : 0,
    "scenes" : [
        {
            "name" : "Scene",
            "nodes" : [
                0
            ]
        }
    ],
    "nodes" : [
        {
            "mesh" : 0,
            "name" : "C",
            "rotation" : [
                0.5000000596046448,
                0.5000000596046448,
                -0.5000000596046448,
                0.5
            ]
        }
    ],
    "materials" : [
        {
            "name" : "Material.001",
            "pbrMetallicRoughness" : {
                "baseColorFactor" : [
                    0.6795426607131958,
                    0.049706485122442245,
                    0.0027317553758621216,
                    1
                ],
                "metallicFactor" : 0,
                "roughnessFactor" : 0.5
            }
        }
    ],
    "meshes" : [
        {
            "name" : "CUText",
            "primitives" : [
                {
                    "attributes" : {
                        "POSITION" : 0,
                        "NORMAL" : 1
                    },
                    "indices" : 2,
                    "material" : 0
                }
            ]
        }
    ],
    "accessors" : [
        {
            "bufferView" : 0,
            "componentType" : 5126,
            "count" : 1327,
            "max" : [
                0.1225433498620987,
                0,
                0.2528901696205139
            ],
            "min" : [
                -0.1225433349609375,
                -0.10000000149011612,
                -0.2528901696205139
            ],
            "type" : "VEC3"
        },
        {
            "bufferView" : 1,
            "componentType" : 5126,
            "count" : 1327,
            "type" : "VEC3"
        },
        {
            "bufferView" : 2,
            "componentType" : 5123,
            "count" : 2100,
            "type" : "SCALAR"
        }
    ],
    "bufferViews" : [
        {
            "buffer" : 0,
            "byteLength" : 15924,
            "byteOffset" : 0
        },
        {
            "buffer" : 0,
            "byteLength" : 15924,
            "byteOffset" : 15924
        },
        {
            "buffer" : 0,
            "byteLength" : 4200,
            "byteOffset" : 31848
        }
    ],
    "buffers" : [
        {
            "byteLength" : 36048,
            "uri" : "data:application/octet-stream;base64,"
        }
    ]
}
