{
    "asset" : {
        "generator" : "Khronos Blender glTF 2.0 I/O",
        "version" : "2.0"
    },
    "scene" : 0,
    "scenes" : [
        {
            "name" : "Scene",
            "nodes" : [
                0
            ]
        }
    ],
    "nodes" : [
        {
            "mesh" : 0,
            "name" : "E",
            "rotation" : [
                0.5000000596046448,
                0.5000000596046448,
                -0.5000000596046448,
                0.5
            ]
        }
    ],
    "materials" : [
        {
            "name" : "Material.001",
            "pbrMetallicRoughness" : {
                "baseColorFactor" : [
                    0.7991032600402832,
                    0.10704256594181061,
                    0.08810511231422424,
                    1
                ],
                "metallicFactor" : 0,
                "roughnessFactor" : 0.5
            }
        }
    ],
    "meshes" : [
        {
            "name" : "CUText",
            "primitives" : [
                {
                    "attributes" : {
                        "POSITION" : 0,
                        "NORMAL" : 1
                    },
                    "indices" : 2,
                    "material" : 0
                }
            ]
        }
    ],
    "accessors" : [
        {
            "bufferView" : 0,
            "componentType" : 5126,
            "count" : 80,
            "max" : [
                0.10260115563869476,
                0,
                0.24826589226722717
            ],
            "min" : [
                -0.10260114818811417,
                -0.10000000149011612,
                -0.24826589226722717
            ],
            "type" : "VEC3"
        },
        {
            "bufferView" : 1,
            "componentType" : 5126,
            "count" : 80,
            "type" : "VEC3"
        },
        {
            "bufferView" : 2,
            "componentType" : 5123,
            "count" : 132,
            "type" : "SCALAR"
        }
    ],
    "bufferViews" : [
        {
            "buffer" : 0,
            "byteLength" : 960,
            "byteOffset" : 0
        },
        {
            "buffer" : 0,
            "byteLength" : 960,
            "byteOffset" : 960
        },
        {
            "buffer" : 0,
            "byteLength" : 264,
            "byteOffset" : 1920
        }
    ],
    "buffers" : [
        {
            "byteLength" : 2184,
            "uri" : "data:application/octet-stream;base64,"
        }
    ]
}
