{
    "asset" : {
        "generator" : "Khronos Blender glTF 2.0 I/O",
        "version" : "2.0"
    },
    "scene" : 0,
    "scenes" : [
        {
            "name" : "Scene",
            "nodes" : [
                0
            ]
        }
    ],
    "nodes" : [
        {
            "mesh" : 0,
            "name" : "Cube",
            "rotation" : [
                0.7071068286895752,
                0,
                0,
                0.7071067094802856
            ],
            "scale" : [
                8.637128829956055,
                8.637128829956055,
                8.637128829956055
            ]
        }
    ],
    "materials" : [
        {
            "name" : "Material_COLOR_0",
            "pbrMetallicRoughness" : {
                "metallicFactor" : 0,
                "roughnessFactor" : 0.5
            }
        }
    ],
    "meshes" : [
        {
            "name" : "Cube.001",
            "primitives" : [
                {
                    "attributes" : {
                        "POSITION" : 0,
                        "NORMAL" : 1,
                        "TEXCOORD_0" : 2,
                        "COLOR_0" : 3
                    },
                    "indices" : 4,
                    "material" : 0
                }
            ]
        }
    ],
    "accessors" : [
        {
            "bufferView" : 0,
            "componentType" : 5126,
            "count" : 28688,
            "max" : [
                0.87900710105896,
                0.8370986580848694,
                1.1554312705993652
            ],
            "min" : [
                -0.9024560451507568,
                -0.991105854511261,
                -0.9295114874839783
            ],
            "type" : "VEC3"
        },
        {
            "bufferView" : 1,
            "componentType" : 5126,
            "count" : 28688,
            "type" : "VEC3"
        },
        {
            "bufferView" : 2,
            "componentType" : 5126,
            "count" : 28688,
            "type" : "VEC2"
        },
        {
            "bufferView" : 3,
            "componentType" : 5126,
            "count" : 28688,
            "type" : "VEC4"
        },
        {
            "bufferView" : 4,
            "componentType" : 5123,
            "count" : 36864,
            "type" : "SCALAR"
        }
    ],
    "bufferViews" : [
        {
            "buffer" : 0,
            "byteLength" : 344256,
            "byteOffset" : 0
        },
        {
            "buffer" : 0,
            "byteLength" : 344256,
            "byteOffset" : 344256
        },
        {
            "buffer" : 0,
            "byteLength" : 229504,
            "byteOffset" : 688512
        },
        {
            "buffer" : 0,
            "byteLength" : 459008,
            "byteOffset" : 918016
        },
        {
            "buffer" : 0,
            "byteLength" : 73728,
            "byteOffset" : 1377024
        }
    ],
    "buffers" : [
        {
            "byteLength" : 1450752,
            "uri" : "data:application/octet-stream;base64,"
        }
    ]
}
