{
    "asset" : {
        "generator" : "Khronos Blender glTF 2.0 I/O",
        "version" : "2.0"
    },
    "scene" : 0,
    "scenes" : [
        {
            "name" : "Scene",
            "nodes" : [
                0
            ]
        }
    ],
    "nodes" : [
        {
            "mesh" : 0,
            "name" : "S",
            "rotation" : [
                0.5000000596046448,
                0.5000000596046448,
                -0.5000000596046448,
                0.5
            ]
        }
    ],
    "materials" : [
        {
            "name" : "Material.001",
            "pbrMetallicRoughness" : {
                "baseColorFactor" : [
                    0.8000000715255737,
                    0.11010877043008804,
                    0.0713464543223381,
                    1
                ],
                "metallicFactor" : 0,
                "roughnessFactor" : 0.5
            }
        }
    ],
    "meshes" : [
        {
            "name" : "CUText",
            "primitives" : [
                {
                    "attributes" : {
                        "POSITION" : 0,
                        "NORMAL" : 1
                    },
                    "indices" : 2,
                    "material" : 0
                }
            ]
        }
    ],
    "accessors" : [
        {
            "bufferView" : 0,
            "componentType" : 5126,
            "count" : 2101,
            "max" : [
                0.12167629599571228,
                0,
                0.2528901696205139
            ],
            "min" : [
                -0.12167629599571228,
                -0.10000000149011612,
                -0.2528901696205139
            ],
            "type" : "VEC3"
        },
        {
            "bufferView" : 1,
            "componentType" : 5126,
            "count" : 2101,
            "type" : "VEC3"
        },
        {
            "bufferView" : 2,
            "componentType" : 5123,
            "count" : 3384,
            "type" : "SCALAR"
        }
    ],
    "bufferViews" : [
        {
            "buffer" : 0,
            "byteLength" : 25212,
            "byteOffset" : 0
        },
        {
            "buffer" : 0,
            "byteLength" : 25212,
            "byteOffset" : 25212
        },
        {
            "buffer" : 0,
            "byteLength" : 6768,
            "byteOffset" : 50424
        }
    ],
    "buffers" : [
        {
            "byteLength" : 57192,
            "uri" : "data:application/octet-stream;base64,"
        }
    ]
}
